grf
version=1
nRows=18
nColumns=28
inDegrees=no
endheader
time	ground_force_1_vx	ground_force_1_vy	ground_force_1_vz	ground_force_1_px	ground_force_1_py	ground_force_1_pz	ground_moment_1_mx	ground_moment_1_my	ground_moment_1_mz	ground_force_2_vx	ground_force_2_vy	ground_force_2_vz	ground_force_2_px	ground_force_2_py	ground_force_2_pz	ground_moment_2_mx	ground_moment_2_my	ground_moment_2_mz	ground_force_3_vx	ground_force_3_vy	ground_force_3_vz	ground_force_3_px	ground_force_3_py	ground_force_3_pz	ground_moment_3_mx	ground_moment_3_my	ground_moment_3_mz
      0.00000000	      0.44419707	      0.36870666	      0.95187512	    131.18991923	  -1286.85272219	      2.16832388	      0.09344233	      0.33788866	    185.14479262	      1.09820794	     -1.59495429	      1.75172637	    -28.20858544	  -1488.70220242	      0.33397304	      0.03844977	      0.49726844	   -595.86355042	      1.77936613	     -0.77242231	      4.86335260	    454.01787963	   -327.13592581	      0.47067914	     -0.07998594	      0.58757089	    286.11185350
      0.01000000	      0.20749918	      0.32341447	      1.49508910	    293.12593745	  -1210.05667607	      1.94644245	      0.07699524	      0.27841577	    152.55685084	      0.75605815	     -1.22950143	      3.36709957	    213.73392727	  -1669.43627549	      0.19875632	      0.01615562	      0.20893957	   -250.36672942	      1.43937939	     -0.62730340	      4.41374231	    414.19381933	   -267.66138291	      0.33740652	     -0.13849015	      1.01733854	    495.38297729
      0.02000000	      0.56591560	      0.32938409	      1.74496241	    266.22580329	  -1253.91512200	      2.04006043	      0.07790997	      0.28172347	    154.36928990	      0.80193703	     -0.97798439	      2.89769071	    205.01147115	  -1619.33811810	      0.24000210	      0.00557322	      0.07207812	    -86.36929536	      1.57777114	     -0.60085316	      4.49717722	    440.38568350	   -279.68910265	      0.36942938	     -0.12954410	      0.95162146	    463.38269242
      0.03000000	      0.55899324	      0.55832181	      1.46716425	    308.44181522	  -1257.10718979	      2.02457958	      0.07848105	      0.28378847	    155.50080303	      0.97455761	     -0.67495064	      2.22714705	     51.46100383	  -1597.10066973	      0.24865173	      0.01115928	      0.14432226	   -172.93752741	      1.53789245	     -0.69876417	      4.89372596	    434.86465373	   -304.24364318	      0.41831211	     -0.10584883	      0.77755778	    378.62410166
      0.04000000	      0.58735365	      0.31381241	      1.45465046	    196.96875069	  -1163.74901973	      1.91046152	      0.08469307	      0.30625122	    167.80918006	      0.87166232	     -0.33256938	      2.49166164	    138.85782236	  -1650.55731690	      0.20967986	     -0.00088258	     -0.01141441	     13.67758055	      1.57369215	     -0.68056894	      5.09304955	    445.15065448	   -316.39787734	      0.44614811	     -0.10388350	      0.76312057	    371.59404095
      0.05000000	      0.56576355	      0.49242884	      2.13927758	    302.38973166	  -1190.85492933	      1.90672390	      0.08345779	      0.30178443	    165.36161920	      0.54580488	     -0.19693378	      3.15282633	    220.77762538	  -1654.34610830	      0.21180409	      0.00145273	      0.01878805	    -22.51321629	      1.50249917	     -0.61572204	      4.70803831	    398.70430254	   -325.36133025	      0.45157120	     -0.12710998	      0.93374065	    454.67580992
      0.06000000	      0.49853358	      0.38705952	      1.92725855	    288.83401822	  -1284.33673922	      2.08416945	      0.08981167	      0.32476016	    177.95108210	      0.94681170	      0.27249545	      2.73427836	    152.44145525	  -1624.44399050	      0.23234885	     -0.01531498	     -0.19806768	    237.33923158	      1.45858114	     -0.77705734	      4.70614245	    479.54266956	   -326.71905054	      0.47695878	     -0.12448541	      0.91446074	    445.28764912
      0.07000000	      0.44802852	      0.24935015	      0.91516896	    152.77153427	  -1210.55500788	      2.01818858	      0.10865381	      0.39289359	    215.28453428	      3.25209329	      9.80888148	    -57.02811159	    460.85077643	  -1960.47101244	     -0.02817618	      0.01407756	      0.18206420	   -218.16269623	      1.51076678	     -0.40407261	      5.31460275	    451.86270397	   -315.95006415	      0.44710490	     -0.11833749	      0.86929858	    423.29637736
      0.08000000	      0.47604213	      0.70182203	      1.41878382	    247.68588161	  -1262.89099801	      2.06579845	      0.10720855	      0.38766749	    212.42091114	     -8.23877770	     55.90470883	   -199.00731183	    460.31670811	  -1957.25937384	     -0.02553042	      0.04584274	      0.59288133	   -710.43393786	      1.27801546	     -0.49735892	      5.07290922	    441.68251417	   -340.43892012	      0.49455021	     -0.09814998	      0.72100261	    351.08511504
      0.09000000	      0.60678227	      0.18822541	      2.04254073	    339.80974872	  -1267.83993830	      2.02833546	      0.04522368	      0.16352940	     89.60530850	    -38.46158752	     48.62314929	   -381.71178328	    470.72572931	  -1944.43898579	     -0.01415969	      0.10984014	      1.42055573	  -1702.21417755	      1.41902709	     -0.77580400	      5.37782764	    481.64008466	   -328.29860141	      0.48078897	     -0.13033705	      0.95744647	    466.21912644
      0.10000000	      0.36275361	      0.73102637	      1.26680095	    259.36665009	  -1304.53568539	      2.13590461	      0.11087362	      0.40092043	    219.68280607	    -60.45784681	    -44.07746359	   -539.41168702	    475.10268157	  -1928.68279556	     -0.00072818	     -0.01573203	     -0.20346131	    243.80228124	      1.34469414	     -0.61733423	      4.31257544	    440.54032492	   -294.48483057	      0.39985772	     -0.10965059	      0.80548519	    392.22307873
      0.11000000	      0.46663290	      0.11832158	      1.62482895	    342.24931354	  -1342.24486716	      2.16289298	      0.02911755	      0.10528945	     57.69294862	    -63.58783298	   -142.46567629	   -704.11730031	    473.22495532	  -1911.32871118	      0.01363323	     -0.16628302	     -2.15052800	   2576.92054251	      1.43629416	     -0.54255020	      4.49617138	    428.74883824	   -267.03015843	      0.34017924	     -0.11460839	      0.84190488	    409.95728355
      0.12000000	      0.53282104	      0.21360775	      1.51111456	    322.00502104	  -1294.97985570	      2.08685175	      0.03740595	      0.13526039	     74.11540849	    -56.09249267	   -172.32279174	   -869.78834886	    468.94900679	  -1897.94250950	      0.02452855	     -0.23200808	     -3.00054615	   3595.47469249	      1.55677053	     -0.63009863	      4.87090780	    439.25923253	   -300.68116046	      0.41222461	     -0.10643168	      0.78183937	    380.70897851
      0.13000000	      0.26767691	      0.14672459	      0.76684844	    287.44941910	  -1378.35426815	      2.25644995	      0.03996481	      0.14451327	     79.18549031	     -3.56094450	   -222.13111532	  -1021.96038173	    463.69527575	  -1886.41511613	      0.03380954	     -0.06172186	     -0.79824495	    956.51570264	      1.46924218	     -0.51528210	      4.52431336	    441.06579173	   -299.15250351	      0.40959034	     -0.11420260	      0.83892393	    408.50573999
      0.14000000	      0.19981116	      0.06868026	      1.18668802	    300.34962392	  -1485.47735880	      2.44543854	      0.03055652	      0.11049277	     60.54408715	     47.16930226	   -252.45807095	  -1112.67231272	    459.74708048	  -1877.84944719	      0.04070312	      0.16523084	      2.13692020	  -2560.61467794	      1.60790090	     -0.73157037	      4.78360651	    446.55557302	   -337.17019035	      0.48919974	     -0.10225557	      0.75116192	    365.77089427
      0.15000000	      0.36390832	      0.15942030	      1.10655896	    370.17183592	  -1440.31885782	      2.32778524	      0.07568569	      0.27368044	    149.96214545	     44.56685012	   -270.19177775	  -1150.76361927	    459.03033096	  -1871.34902761	      0.04608169	      0.05269524	      0.68150425	   -816.62843041	      1.54181548	     -0.65683770	      4.08026682	    470.99148014	   -278.24675588	      0.37502353	     -0.11587847	      0.85123478	    414.50038897
      0.16000000	      0.79044067	     -0.07478102	      1.84097156	    364.90670869	  -1310.02539983	      2.09265739	      0.01110801	      0.04016671	     22.00919578	     33.92368890	   -282.98261852	  -1185.68832206	    458.98998831	  -1865.38197810	      0.05105879	     -0.04065602	     -0.52580178	    630.05430022	      1.62273548	     -0.61344058	      5.70068178	    456.00526575	   -371.98565552	      0.56333996	     -0.07155932	      0.52566954	    255.96960067
      0.17000000	      0.57379643	     -0.15121722	      1.07157763	    337.98877716	  -1516.73902326	      2.48349455	     -0.00364676	     -0.01318675	     -7.22562668	     60.53275817	   -284.92899456	  -1226.09123440	    457.76522445	  -1861.57392536	      0.05415771	      0.12233185	      1.58211018	  -1895.80057699	      1.84619373	     -1.00611953	      4.26166511	    445.83614619	   -308.81805224	      0.43077351	     -0.11033524	      0.81051463	    394.67211047
